<svg xmlns="http://www.w3.org/2000/svg" xmlns:xlink="http://www.w3.org/1999/xlink" zoomAndPan="magnify" viewBox="220 0 1125 490" preserveAspectRatio="xMidYMid meet" version="1.0"><defs><filter x="0%" y="0%" width="100%" height="100%" id="553834df63"><feColorMatrix values="0 0 0 0 1 0 0 0 0 1 0 0 0 0 1 0 0 0 1 0" color-interpolation-filters="sRGB"/></filter><g/><clipPath id="8709ce1fc3"><path d="M 0.585938 0 L 1397.914062 0 L 1397.914062 490 L 0.585938 490 Z M 0.585938 0 " clip-rule="nonzero"/></clipPath><clipPath id="250a951e7a"><rect x="0" width="932" y="0" height="230"/></clipPath><clipPath id="5b61577d30"><path d="M 1065.007812 45.828125 L 1337.730469 45.828125 L 1337.730469 458.660156 L 1065.007812 458.660156 Z M 1065.007812 45.828125 " clip-rule="nonzero"/></clipPath><clipPath id="cf7e9e8296"><path d="M 0.0078125 0.828125 L 272.730469 0.828125 L 272.730469 413.660156 L 0.0078125 413.660156 Z M 0.0078125 0.828125 " clip-rule="nonzero"/></clipPath><clipPath id="aeb75f318e"><path d="M 6 42.789062 L 268.234375 42.789062 L 268.234375 372.449219 L 6 372.449219 Z M 6 42.789062 " clip-rule="nonzero"/></clipPath><linearGradient x1="-79.167999" gradientTransform="matrix(0, 0.749219, -0.748851, 0, 171.939691, 102.10142)" y1="46.5" x2="360.841001" gradientUnits="userSpaceOnUse" y2="46.5" id="3dcb7efd07"><stop stop-opacity="1" stop-color="rgb(0%, 0%, 0%)" offset="0"/><stop stop-opacity="1" stop-color="rgb(0%, 0%, 0%)" offset="0.25"/><stop stop-opacity="1" stop-color="rgb(0%, 0%, 0%)" offset="0.28125"/><stop stop-opacity="1" stop-color="rgb(0%, 0%, 0%)" offset="0.296875"/><stop stop-opacity="1" stop-color="rgb(0%, 0%, 0%)" offset="0.304688"/><stop stop-opacity="1" stop-color="rgb(0.382996%, 0.382996%, 0.382996%)" offset="0.308594"/><stop stop-opacity="1" stop-color="rgb(0.767517%, 0.767517%, 0.767517%)" offset="0.3125"/><stop stop-opacity="1" stop-color="rgb(1.220703%, 1.220703%, 1.220703%)" offset="0.316406"/><stop stop-opacity="1" stop-color="rgb(1.675415%, 1.675415%, 1.675415%)" offset="0.320312"/><stop stop-opacity="1" stop-color="rgb(2.128601%, 2.128601%, 2.128601%)" offset="0.324219"/><stop stop-opacity="1" stop-color="rgb(2.583313%, 2.583313%, 2.583313%)" offset="0.328125"/><stop stop-opacity="1" stop-color="rgb(3.036499%, 3.036499%, 3.036499%)" offset="0.332031"/><stop stop-opacity="1" stop-color="rgb(3.491211%, 3.491211%, 3.491211%)" offset="0.335937"/><stop stop-opacity="1" stop-color="rgb(3.944397%, 3.944397%, 3.944397%)" offset="0.339844"/><stop stop-opacity="1" stop-color="rgb(4.399109%, 4.399109%, 4.399109%)" offset="0.34375"/><stop stop-opacity="1" stop-color="rgb(4.852295%, 4.852295%, 4.852295%)" offset="0.347656"/><stop stop-opacity="1" stop-color="rgb(5.305481%, 5.305481%, 5.305481%)" offset="0.351562"/><stop stop-opacity="1" stop-color="rgb(5.758667%, 5.758667%, 5.758667%)" offset="0.355469"/><stop stop-opacity="1" stop-color="rgb(6.213379%, 6.213379%, 6.213379%)" offset="0.359375"/><stop stop-opacity="1" stop-color="rgb(6.666565%, 6.666565%, 6.666565%)" offset="0.363281"/><stop stop-opacity="1" stop-color="rgb(7.121277%, 7.121277%, 7.121277%)" offset="0.367188"/><stop stop-opacity="1" stop-color="rgb(7.574463%, 7.574463%, 7.574463%)" offset="0.371094"/><stop stop-opacity="1" stop-color="rgb(8.029175%, 8.029175%, 8.029175%)" offset="0.375"/><stop stop-opacity="1" stop-color="rgb(8.482361%, 8.482361%, 8.482361%)" offset="0.378906"/><stop stop-opacity="1" stop-color="rgb(8.935547%, 8.935547%, 8.935547%)" offset="0.382812"/><stop stop-opacity="1" stop-color="rgb(9.388733%, 9.388733%, 9.388733%)" offset="0.386719"/><stop stop-opacity="1" stop-color="rgb(9.843445%, 9.843445%, 9.843445%)" offset="0.390625"/><stop stop-opacity="1" stop-color="rgb(10.296631%, 10.296631%, 10.296631%)" offset="0.394531"/><stop stop-opacity="1" stop-color="rgb(10.751343%, 10.751343%, 10.751343%)" offset="0.398437"/><stop stop-opacity="1" stop-color="rgb(11.204529%, 11.204529%, 11.204529%)" offset="0.402344"/><stop stop-opacity="1" stop-color="rgb(11.659241%, 11.659241%, 11.659241%)" offset="0.40625"/><stop stop-opacity="1" stop-color="rgb(12.112427%, 12.112427%, 12.112427%)" offset="0.410156"/><stop stop-opacity="1" stop-color="rgb(12.565613%, 12.565613%, 12.565613%)" offset="0.414062"/><stop stop-opacity="1" stop-color="rgb(13.018799%, 13.018799%, 13.018799%)" offset="0.417969"/><stop stop-opacity="1" stop-color="rgb(13.473511%, 13.473511%, 13.473511%)" offset="0.421875"/><stop stop-opacity="1" stop-color="rgb(13.926697%, 13.926697%, 13.926697%)" offset="0.425781"/><stop stop-opacity="1" stop-color="rgb(14.381409%, 14.381409%, 14.381409%)" offset="0.429687"/><stop stop-opacity="1" stop-color="rgb(14.834595%, 14.834595%, 14.834595%)" offset="0.433594"/><stop stop-opacity="1" stop-color="rgb(15.289307%, 15.289307%, 15.289307%)" offset="0.4375"/><stop stop-opacity="1" stop-color="rgb(15.742493%, 15.742493%, 15.742493%)" offset="0.441406"/><stop stop-opacity="1" stop-color="rgb(16.197205%, 16.197205%, 16.197205%)" offset="0.445312"/><stop stop-opacity="1" stop-color="rgb(16.650391%, 16.650391%, 16.650391%)" offset="0.449219"/><stop stop-opacity="1" stop-color="rgb(17.103577%, 17.103577%, 17.103577%)" offset="0.453125"/><stop stop-opacity="1" stop-color="rgb(17.556763%, 17.556763%, 17.556763%)" offset="0.457031"/><stop stop-opacity="1" stop-color="rgb(18.011475%, 18.011475%, 18.011475%)" offset="0.460938"/><stop stop-opacity="1" stop-color="rgb(18.464661%, 18.464661%, 18.464661%)" offset="0.464844"/><stop stop-opacity="1" stop-color="rgb(18.919373%, 18.919373%, 18.919373%)" offset="0.46875"/><stop stop-opacity="1" stop-color="rgb(19.372559%, 19.372559%, 19.372559%)" offset="0.472656"/><stop stop-opacity="1" stop-color="rgb(19.827271%, 19.827271%, 19.827271%)" offset="0.476562"/><stop stop-opacity="1" stop-color="rgb(20.280457%, 20.280457%, 20.280457%)" offset="0.480469"/><stop stop-opacity="1" stop-color="rgb(20.733643%, 20.733643%, 20.733643%)" offset="0.484375"/><stop stop-opacity="1" stop-color="rgb(21.186829%, 21.186829%, 21.186829%)" offset="0.488281"/><stop stop-opacity="1" stop-color="rgb(21.641541%, 21.641541%, 21.641541%)" offset="0.492187"/><stop stop-opacity="1" stop-color="rgb(22.094727%, 22.094727%, 22.094727%)" offset="0.496094"/><stop stop-opacity="1" stop-color="rgb(22.549438%, 22.549438%, 22.549438%)" offset="0.5"/><stop stop-opacity="1" stop-color="rgb(23.002625%, 23.002625%, 23.002625%)" offset="0.503906"/><stop stop-opacity="1" stop-color="rgb(23.457336%, 23.457336%, 23.457336%)" offset="0.507812"/><stop stop-opacity="1" stop-color="rgb(23.910522%, 23.910522%, 23.910522%)" offset="0.511719"/><stop stop-opacity="1" stop-color="rgb(24.363708%, 24.363708%, 24.363708%)" offset="0.515625"/><stop stop-opacity="1" stop-color="rgb(24.816895%, 24.816895%, 24.816895%)" offset="0.519531"/><stop stop-opacity="1" stop-color="rgb(25.271606%, 25.271606%, 25.271606%)" offset="0.523438"/><stop stop-opacity="1" stop-color="rgb(25.724792%, 25.724792%, 25.724792%)" offset="0.527344"/><stop stop-opacity="1" stop-color="rgb(26.179504%, 26.179504%, 26.179504%)" offset="0.53125"/><stop stop-opacity="1" stop-color="rgb(26.63269%, 26.63269%, 26.63269%)" offset="0.535156"/><stop stop-opacity="1" stop-color="rgb(27.087402%, 27.087402%, 27.087402%)" offset="0.539062"/><stop stop-opacity="1" stop-color="rgb(27.540588%, 27.540588%, 27.540588%)" offset="0.542969"/><stop stop-opacity="1" stop-color="rgb(27.9953%, 27.9953%, 27.9953%)" offset="0.546875"/><stop stop-opacity="1" stop-color="rgb(28.448486%, 28.448486%, 28.448486%)" offset="0.550781"/><stop stop-opacity="1" stop-color="rgb(28.901672%, 28.901672%, 28.901672%)" offset="0.554688"/><stop stop-opacity="1" stop-color="rgb(29.354858%, 29.354858%, 29.354858%)" offset="0.558594"/><stop stop-opacity="1" stop-color="rgb(29.80957%, 29.80957%, 29.80957%)" offset="0.5625"/><stop stop-opacity="1" stop-color="rgb(30.262756%, 30.262756%, 30.262756%)" offset="0.566406"/><stop stop-opacity="1" stop-color="rgb(30.717468%, 30.717468%, 30.717468%)" offset="0.570312"/><stop stop-opacity="1" stop-color="rgb(31.170654%, 31.170654%, 31.170654%)" offset="0.574219"/><stop stop-opacity="1" stop-color="rgb(31.625366%, 31.625366%, 31.625366%)" offset="0.578125"/><stop stop-opacity="1" stop-color="rgb(32.078552%, 32.078552%, 32.078552%)" offset="0.582031"/><stop stop-opacity="1" stop-color="rgb(32.531738%, 32.531738%, 32.531738%)" offset="0.585937"/><stop stop-opacity="1" stop-color="rgb(32.984924%, 32.984924%, 32.984924%)" offset="0.589844"/><stop stop-opacity="1" stop-color="rgb(33.439636%, 33.439636%, 33.439636%)" offset="0.59375"/><stop stop-opacity="1" stop-color="rgb(33.892822%, 33.892822%, 33.892822%)" offset="0.597656"/><stop stop-opacity="1" stop-color="rgb(34.347534%, 34.347534%, 34.347534%)" offset="0.601562"/><stop stop-opacity="1" stop-color="rgb(34.80072%, 34.80072%, 34.80072%)" offset="0.605469"/><stop stop-opacity="1" stop-color="rgb(35.255432%, 35.255432%, 35.255432%)" offset="0.609375"/><stop stop-opacity="1" stop-color="rgb(35.708618%, 35.708618%, 35.708618%)" offset="0.613281"/><stop stop-opacity="1" stop-color="rgb(36.16333%, 36.16333%, 36.16333%)" offset="0.617188"/><stop stop-opacity="1" stop-color="rgb(36.616516%, 36.616516%, 36.616516%)" offset="0.621094"/><stop stop-opacity="1" stop-color="rgb(37.069702%, 37.069702%, 37.069702%)" offset="0.625"/><stop stop-opacity="1" stop-color="rgb(37.522888%, 37.522888%, 37.522888%)" offset="0.628906"/><stop stop-opacity="1" stop-color="rgb(37.9776%, 37.9776%, 37.9776%)" offset="0.632812"/><stop stop-opacity="1" stop-color="rgb(38.430786%, 38.430786%, 38.430786%)" offset="0.636719"/><stop stop-opacity="1" stop-color="rgb(38.885498%, 38.885498%, 38.885498%)" offset="0.640625"/><stop stop-opacity="1" stop-color="rgb(39.338684%, 39.338684%, 39.338684%)" offset="0.644531"/><stop stop-opacity="1" stop-color="rgb(39.793396%, 39.793396%, 39.793396%)" offset="0.648438"/><stop stop-opacity="1" stop-color="rgb(40.246582%, 40.246582%, 40.246582%)" offset="0.652344"/><stop stop-opacity="1" stop-color="rgb(40.699768%, 40.699768%, 40.699768%)" offset="0.65625"/><stop stop-opacity="1" stop-color="rgb(41.152954%, 41.152954%, 41.152954%)" offset="0.660156"/><stop stop-opacity="1" stop-color="rgb(41.607666%, 41.607666%, 41.607666%)" offset="0.664062"/><stop stop-opacity="1" stop-color="rgb(42.060852%, 42.060852%, 42.060852%)" offset="0.667969"/><stop stop-opacity="1" stop-color="rgb(42.515564%, 42.515564%, 42.515564%)" offset="0.671875"/><stop stop-opacity="1" stop-color="rgb(42.96875%, 42.96875%, 42.96875%)" offset="0.675781"/><stop stop-opacity="1" stop-color="rgb(43.423462%, 43.423462%, 43.423462%)" offset="0.679687"/><stop stop-opacity="1" stop-color="rgb(43.876648%, 43.876648%, 43.876648%)" offset="0.683594"/><stop stop-opacity="1" stop-color="rgb(44.329834%, 44.329834%, 44.329834%)" offset="0.6875"/><stop stop-opacity="1" stop-color="rgb(44.714355%, 44.714355%, 44.714355%)" offset="0.691406"/><stop stop-opacity="1" stop-color="rgb(45.098877%, 45.098877%, 45.098877%)" offset="0.695313"/><stop stop-opacity="1" stop-color="rgb(45.098877%, 45.098877%, 45.098877%)" offset="0.703125"/><stop stop-opacity="1" stop-color="rgb(45.098877%, 45.098877%, 45.098877%)" offset="0.71875"/><stop stop-opacity="1" stop-color="rgb(45.098877%, 45.098877%, 45.098877%)" offset="0.75"/><stop stop-opacity="1" stop-color="rgb(45.098877%, 45.098877%, 45.098877%)" offset="1"/></linearGradient><clipPath id="b4dd80e774"><rect x="0" width="273" y="0" height="414"/></clipPath><clipPath id="375a881ccc"><path d="M 0.0078125 0.828125 L 272.730469 0.828125 L 272.730469 413.660156 L 0.0078125 413.660156 Z M 0.0078125 0.828125 " clip-rule="nonzero"/></clipPath><clipPath id="f1aae4bf6a"><rect x="0" width="273" y="0" height="414"/></clipPath><clipPath id="7faa6a4dbb"><rect x="0" width="273" y="0" height="414"/></clipPath><mask id="553832be2c"><g filter="url(#553834df63)"><g transform="matrix(1, 0, 0, 1, -0.000000000000227374, -0.000000000000007105)"><g clip-path="url(#7faa6a4dbb)"><g clip-path="url(#375a881ccc)"><g transform="matrix(1, 0, 0, 1, -0.000000000000227374, -0.000000000000007105)"><g clip-path="url(#f1aae4bf6a)"><g fill="#000000" fill-opacity="1"><g transform="translate(122.133393, 143.500556)"><g><path d="M -0.5 21.375 C -0.5 18.320312 -0.304688 15.535156 0.078125 13.015625 C 0.460938 10.492188 1.148438 8.320312 2.140625 6.5 C 3.128906 4.6875 4.53125 3.289062 6.34375 2.3125 C 8.164062 1.34375 10.503906 0.859375 13.359375 0.859375 L 13.359375 12.703125 C 12.148438 12.703125 11.265625 13.0625 10.703125 13.78125 C 10.148438 14.507812 9.804688 15.5625 9.671875 16.9375 C 9.546875 18.320312 9.484375 19.972656 9.484375 21.890625 C 9.484375 23.734375 9.53125 25.175781 9.625 26.21875 C 9.726562 27.257812 9.957031 28 10.3125 28.4375 C 10.664062 28.875 11.226562 29.09375 12 29.09375 C 12.675781 29.09375 13.195312 28.941406 13.5625 28.640625 C 13.9375 28.335938 14.207031 27.765625 14.375 26.921875 C 14.539062 26.085938 14.640625 24.851562 14.671875 23.21875 C 14.703125 21.59375 14.71875 19.46875 14.71875 16.84375 L 20.578125 16.84375 C 20.578125 19.46875 20.597656 21.582031 20.640625 23.1875 C 20.691406 24.800781 20.800781 26.035156 20.96875 26.890625 C 21.144531 27.753906 21.414062 28.335938 21.78125 28.640625 C 22.15625 28.941406 22.660156 29.09375 23.296875 29.09375 C 24.035156 29.09375 24.582031 28.878906 24.9375 28.453125 C 25.289062 28.035156 25.523438 27.304688 25.640625 26.265625 C 25.753906 25.222656 25.8125 23.765625 25.8125 21.890625 C 25.8125 19.867188 25.734375 18.175781 25.578125 16.8125 C 25.429688 15.457031 25.085938 14.429688 24.546875 13.734375 C 24.015625 13.046875 23.144531 12.703125 21.9375 12.703125 L 21.9375 0.859375 C 24.789062 0.859375 27.125 1.34375 28.9375 2.3125 C 30.757812 3.289062 32.164062 4.6875 33.15625 6.5 C 34.144531 8.320312 34.832031 10.492188 35.21875 13.015625 C 35.601562 15.535156 35.796875 18.320312 35.796875 21.375 C 35.796875 25.507812 35.484375 29.03125 34.859375 31.9375 C 34.242188 34.84375 33.171875 37.0625 31.640625 38.59375 C 30.109375 40.125 27.984375 40.890625 25.265625 40.890625 C 23.515625 40.890625 22.015625 40.441406 20.765625 39.546875 C 19.523438 38.660156 18.484375 37.394531 17.640625 35.75 C 16.804688 37.394531 15.773438 38.660156 14.546875 39.546875 C 13.316406 40.441406 11.8125 40.890625 10.03125 40.890625 C 7.34375 40.890625 5.222656 40.125 3.671875 38.59375 C 2.128906 37.0625 1.046875 34.84375 0.421875 31.9375 C -0.191406 29.03125 -0.5 25.507812 -0.5 21.375 Z M -0.5 21.375 "/></g></g></g><g fill="#000000" fill-opacity="1"><g transform="translate(122.133393, 185.290069)"><g><path d="M -0.5 22.53125 C -0.5 15.207031 0.957031 9.847656 3.875 6.453125 C 6.800781 3.054688 11.109375 1.359375 16.796875 1.359375 C 20.453125 1.359375 23.5 1.851562 25.9375 2.84375 C 28.375 3.84375 30.316406 5.222656 31.765625 6.984375 C 33.210938 8.742188 34.242188 10.773438 34.859375 13.078125 C 35.484375 15.378906 35.796875 17.828125 35.796875 20.421875 C 35.796875 24.828125 35.5625 28.539062 35.09375 31.5625 C 34.625 34.59375 34.15625 37.179688 33.6875 39.328125 L 24.5 39.328125 C 24.976562 36.835938 25.453125 34.253906 25.921875 31.578125 C 26.390625 28.910156 26.625 25.929688 26.625 22.640625 C 26.625 19.921875 26.203125 17.820312 25.359375 16.34375 C 24.523438 14.863281 22.8125 13.90625 20.21875 13.46875 C 21.226562 14.945312 21.972656 16.707031 22.453125 18.75 C 22.941406 20.800781 23.1875 23.054688 23.1875 25.515625 C 23.1875 28.671875 22.785156 31.46875 21.984375 33.90625 C 21.179688 36.34375 19.929688 38.25 18.234375 39.625 C 16.535156 41.007812 14.359375 41.703125 11.703125 41.703125 C 7.597656 41.703125 4.535156 40.0625 2.515625 36.78125 C 0.503906 33.5 -0.5 28.75 -0.5 22.53125 Z M 8.671875 21.53125 C 8.671875 23.75 8.847656 25.460938 9.203125 26.671875 C 9.554688 27.878906 10.066406 28.71875 10.734375 29.1875 C 11.410156 29.664062 12.21875 29.90625 13.15625 29.90625 C 14.101562 29.90625 14.898438 29.664062 15.546875 29.1875 C 16.203125 28.71875 16.695312 27.878906 17.03125 26.671875 C 17.375 25.460938 17.546875 23.75 17.546875 21.53125 C 17.546875 18.375 17.175781 16.195312 16.4375 15 C 15.695312 13.800781 14.601562 13.203125 13.15625 13.203125 C 11.707031 13.203125 10.597656 13.789062 9.828125 14.96875 C 9.054688 16.144531 8.671875 18.332031 8.671875 21.53125 Z M 8.671875 21.53125 "/></g></g></g><g fill="#000000" fill-opacity="1"><g transform="translate(122.133393, 228.390231)"><g><path d="M -0.5 21.53125 C -0.5 14.539062 1.019531 9.347656 4.0625 5.953125 C 7.101562 2.554688 11.648438 0.859375 17.703125 0.859375 C 23.710938 0.859375 28.226562 2.554688 31.25 5.953125 C 34.28125 9.347656 35.796875 14.539062 35.796875 21.53125 C 35.796875 28.519531 34.28125 33.710938 31.25 37.109375 C 28.226562 40.503906 23.710938 42.203125 17.703125 42.203125 C 11.679688 42.203125 7.140625 40.503906 4.078125 37.109375 C 1.023438 33.710938 -0.5 28.519531 -0.5 21.53125 Z M 9.484375 21.53125 C 9.484375 23.78125 9.84375 25.550781 10.5625 26.84375 C 11.28125 28.144531 12.257812 29.0625 13.5 29.59375 C 14.75 30.132812 16.148438 30.40625 17.703125 30.40625 C 19.242188 30.40625 20.617188 30.132812 21.828125 29.59375 C 23.035156 29.0625 24 28.15625 24.71875 26.875 C 25.445312 25.59375 25.8125 23.8125 25.8125 21.53125 C 25.8125 19.28125 25.457031 17.503906 24.75 16.203125 C 24.050781 14.910156 23.085938 14.003906 21.859375 13.484375 C 20.628906 12.960938 19.242188 12.703125 17.703125 12.703125 C 16.148438 12.703125 14.75 12.96875 13.5 13.5 C 12.257812 14.039062 11.28125 14.953125 10.5625 16.234375 C 9.84375 17.515625 9.484375 19.28125 9.484375 21.53125 Z M 9.484375 21.53125 "/></g></g></g></g></g></g></g></g></g></mask><clipPath id="6c1a64a4d2"><path d="M 6 42.789062 L 268.234375 42.789062 L 268.234375 372.449219 L 6 372.449219 Z M 6 42.789062 " clip-rule="nonzero"/></clipPath><clipPath id="0f511b5bb8"><rect x="0" width="273" y="0" height="414"/></clipPath><clipPath id="a86a18254d"><rect x="0" width="273" y="0" height="414"/></clipPath><clipPath id="feddbce4ce"><path d="M 872.171875 149.234375 L 875.917969 149.234375 L 875.917969 433.253906 L 872.171875 433.253906 Z M 872.171875 149.234375 " clip-rule="nonzero"/></clipPath><clipPath id="29af64bf3c"><path d="M 0.171875 0.234375 L 3.917969 0.234375 L 3.917969 284.253906 L 0.171875 284.253906 Z M 0.171875 0.234375 " clip-rule="nonzero"/></clipPath><clipPath id="b8262162ad"><rect x="0" width="4" y="0" height="285"/></clipPath><clipPath id="804f95ad31"><path d="M 1147.222656 93.25 L 1150.96875 93.25 L 1150.96875 377.269531 L 1147.222656 377.269531 Z M 1147.222656 93.25 " clip-rule="nonzero"/></clipPath><clipPath id="0901265904"><path d="M 0.222656 0.25 L 3.96875 0.25 L 3.96875 284.269531 L 0.222656 284.269531 Z M 0.222656 0.25 " clip-rule="nonzero"/></clipPath><clipPath id="432cb292b6"><rect x="0" width="4" y="0" height="285"/></clipPath><clipPath id="d954422629"><path d="M 510 244 L 662 244 L 662 490 L 510 490 Z M 510 244 " clip-rule="nonzero"/></clipPath><clipPath id="672e4fd11e"><path d="M 513.847656 244.644531 L 661.535156 487.246094 L 658.1875 489.285156 L 510.5 246.6875 Z M 513.847656 244.644531 " clip-rule="nonzero"/></clipPath><clipPath id="aaf43043ab"><path d="M 0.308594 0.550781 L 151.59375 0.550781 L 151.59375 245.339844 L 0.308594 245.339844 Z M 0.308594 0.550781 " clip-rule="nonzero"/></clipPath><clipPath id="b72f6f2ee4"><path d="M 3.847656 0.644531 L 151.535156 243.246094 L 148.1875 245.285156 L 0.5 2.6875 Z M 3.847656 0.644531 " clip-rule="nonzero"/></clipPath><clipPath id="e2fd337a0d"><rect x="0" width="152" y="0" height="246"/></clipPath><clipPath id="0d7fb9b066"><path d="M 628.28125 82.941406 L 633.605469 82.941406 L 633.605469 366.960938 L 628.28125 366.960938 Z M 628.28125 82.941406 " clip-rule="nonzero"/></clipPath><clipPath id="9e4ceee24a"><path d="M 0.28125 0.941406 L 5.605469 0.941406 L 5.605469 284.960938 L 0.28125 284.960938 Z M 0.28125 0.941406 " clip-rule="nonzero"/></clipPath><clipPath id="5bdf5d1051"><rect x="0" width="6" y="0" height="285"/></clipPath><clipPath id="313d4fbb80"><path d="M 324.292969 97.324219 L 328.039062 97.324219 L 328.039062 381.34375 L 324.292969 381.34375 Z M 324.292969 97.324219 " clip-rule="nonzero"/></clipPath><clipPath id="c08daca477"><path d="M 0.292969 0.324219 L 4.039062 0.324219 L 4.039062 284.34375 L 0.292969 284.34375 Z M 0.292969 0.324219 " clip-rule="nonzero"/></clipPath><clipPath id="15520b4426"><rect x="0" width="5" y="0" height="285"/></clipPath><clipPath id="457eb9e251"><path d="M 896 185 L 972 185 L 972 320 L 896 320 Z M 896 185 " clip-rule="nonzero"/></clipPath><clipPath id="29d45f08a8"><path d="M 900.011719 185.84375 L 971.496094 317.066406 L 967.652344 319.160156 L 896.164062 187.9375 Z M 900.011719 185.84375 " clip-rule="nonzero"/></clipPath><clipPath id="a81497615c"><path d="M 0.0742188 0.8125 L 75.597656 0.8125 L 75.597656 134.355469 L 0.0742188 134.355469 Z M 0.0742188 0.8125 " clip-rule="nonzero"/></clipPath><clipPath id="e4c89cd8c7"><path d="M 4.011719 0.84375 L 75.496094 132.066406 L 71.652344 134.160156 L 0.164062 2.9375 Z M 4.011719 0.84375 " clip-rule="nonzero"/></clipPath><clipPath id="a1b9fc0940"><rect x="0" width="76" y="0" height="135"/></clipPath><clipPath id="7162434135"><path d="M 776 185 L 852 185 L 852 320 L 776 320 Z M 776 185 " clip-rule="nonzero"/></clipPath><clipPath id="82630151ca"><path d="M 851.503906 186.863281 L 780.09375 319.910156 L 776.792969 318.136719 L 848.203125 185.09375 Z M 851.503906 186.863281 " clip-rule="nonzero"/></clipPath><clipPath id="b14c3ef02c"><path d="M 0.675781 0.0898438 L 75.71875 0.0898438 L 75.71875 135 L 0.675781 135 Z M 0.675781 0.0898438 " clip-rule="nonzero"/></clipPath><clipPath id="d472ef8f1d"><path d="M 75.503906 1.863281 L 4.09375 134.910156 L 0.792969 133.136719 L 72.203125 0.09375 Z M 75.503906 1.863281 " clip-rule="nonzero"/></clipPath><clipPath id="3280bf0686"><rect x="0" width="76" y="0" height="135"/></clipPath><clipPath id="00142fdc23"><path d="M 359 0 L 511 0 L 511 245 L 359 245 Z M 359 0 " clip-rule="nonzero"/></clipPath><clipPath id="801c89ebd9"><path d="M 362.8125 0.00390625 L 510.5 242.605469 L 507.148438 244.644531 L 359.460938 2.042969 Z M 362.8125 0.00390625 " clip-rule="nonzero"/></clipPath><clipPath id="054151936b"><path d="M 0.261719 0 L 151.546875 0 L 151.546875 244.789062 L 0.261719 244.789062 Z M 0.261719 0 " clip-rule="nonzero"/></clipPath><clipPath id="fc85a1be49"><path d="M 3.8125 0.00390625 L 151.5 242.605469 L 148.148438 244.644531 L 0.460938 2.042969 Z M 3.8125 0.00390625 " clip-rule="nonzero"/></clipPath><clipPath id="bb6cb6ec22"><rect x="0" width="152" y="0" height="245"/></clipPath></defs><g transform="matrix(1, 0, 0, 1, 233, 148)"><g clip-path="url(#250a951e7a)"><g fill="#000000" fill-opacity="1"><g transform="translate(1.386382, 172.349259)"><g><path d="M 93.078125 1.90625 C 63.765625 1.90625 42.476562 -3.738281 29.21875 -15.03125 C 15.957031 -26.332031 9.328125 -43.59375 9.328125 -66.8125 L 9.328125 -133.234375 L 39.40625 -133.234375 L 39.40625 -66.8125 C 39.40625 -61.863281 39.941406 -56.847656 41.015625 -51.765625 C 42.097656 -46.691406 44.414062 -42 47.96875 -37.6875 C 51.519531 -33.375 56.878906 -29.914062 64.046875 -27.3125 C 71.222656 -24.707031 80.898438 -23.40625 93.078125 -23.40625 C 105.253906 -23.40625 114.925781 -24.738281 122.09375 -27.40625 C 129.269531 -30.070312 134.632812 -33.53125 138.1875 -37.78125 C 141.738281 -42.03125 144.050781 -46.691406 145.125 -51.765625 C 146.207031 -56.847656 146.75 -61.863281 146.75 -66.8125 L 146.75 -133.234375 L 176.828125 -133.234375 L 176.828125 -66.8125 C 176.828125 -43.71875 170.164062 -26.488281 156.84375 -15.125 C 143.519531 -3.769531 122.265625 1.90625 93.078125 1.90625 Z M 93.078125 1.90625 "/></g></g></g><g fill="#000000" fill-opacity="1"><g transform="translate(187.540767, 172.349259)"><g><path d="M 9.328125 0 L 9.328125 -133.234375 L 114.015625 -133.234375 C 124.171875 -133.234375 133.050781 -131.296875 140.65625 -127.421875 C 148.269531 -123.554688 154.234375 -118.007812 158.546875 -110.78125 C 162.867188 -103.550781 165.03125 -94.984375 165.03125 -85.078125 C 165.03125 -73.910156 162.300781 -64.488281 156.84375 -56.8125 C 151.382812 -49.132812 143.960938 -43.648438 134.578125 -40.359375 L 159.515625 0 L 124.109375 0 L 101.640625 -36.734375 L 39.40625 -36.734375 L 39.40625 0 Z M 39.40625 -62.046875 L 104.5 -62.046875 C 107.414062 -62.046875 110.617188 -62.171875 114.109375 -62.421875 C 117.597656 -62.679688 120.925781 -63.507812 124.09375 -64.90625 C 127.269531 -66.300781 129.875 -68.582031 131.90625 -71.75 C 133.9375 -74.925781 134.953125 -79.367188 134.953125 -85.078125 C 134.953125 -90.796875 133.9375 -95.207031 131.90625 -98.3125 C 129.875 -101.414062 127.269531 -103.664062 124.09375 -105.0625 C 120.925781 -106.457031 117.597656 -107.28125 114.109375 -107.53125 C 110.617188 -107.789062 107.414062 -107.921875 104.5 -107.921875 L 39.40625 -107.921875 Z M 39.40625 -62.046875 "/></g></g></g><g fill="#000000" fill-opacity="1"><g transform="translate(359.990551, 172.349259)"><g><path d="M 9.328125 0 L 9.328125 -133.234375 L 126.765625 -133.234375 C 136.921875 -133.234375 144.851562 -131.644531 150.5625 -128.46875 C 156.269531 -125.300781 160.328125 -121.050781 162.734375 -115.71875 C 165.148438 -110.394531 166.359375 -104.5 166.359375 -98.03125 C 166.359375 -93.207031 165.5 -88.539062 163.78125 -84.03125 C 162.070312 -79.53125 159.441406 -75.441406 155.890625 -71.765625 C 161.722656 -68.585938 166.289062 -64.269531 169.59375 -58.8125 C 172.894531 -53.351562 174.546875 -46.628906 174.546875 -38.640625 C 174.546875 -31.148438 173.019531 -24.484375 169.96875 -18.640625 C 166.925781 -12.804688 162.234375 -8.238281 155.890625 -4.9375 C 149.546875 -1.644531 141.296875 0 131.140625 0 Z M 39.40625 -79.5625 L 117.0625 -79.5625 C 120.613281 -79.5625 123.816406 -79.78125 126.671875 -80.21875 C 129.523438 -80.664062 131.835938 -81.96875 133.609375 -84.125 C 135.390625 -86.289062 136.28125 -89.910156 136.28125 -94.984375 C 136.28125 -100.179688 135.390625 -103.859375 133.609375 -106.015625 C 131.835938 -108.171875 129.523438 -109.472656 126.671875 -109.921875 C 123.816406 -110.367188 120.613281 -110.59375 117.0625 -110.59375 L 39.40625 -110.59375 Z M 39.40625 -23.796875 L 125.0625 -23.796875 C 128.613281 -23.796875 131.847656 -24.015625 134.765625 -24.453125 C 137.679688 -24.898438 140.023438 -26.234375 141.796875 -28.453125 C 143.578125 -30.671875 144.46875 -34.445312 144.46875 -39.78125 C 144.46875 -45.113281 143.578125 -48.890625 141.796875 -51.109375 C 140.023438 -53.328125 137.679688 -54.65625 134.765625 -55.09375 C 131.847656 -55.539062 128.613281 -55.765625 125.0625 -55.765625 L 39.40625 -55.765625 Z M 39.40625 -23.796875 "/></g></g></g><g fill="#000000" fill-opacity="1"><g transform="translate(541.957413, 172.349259)"><g><path d="M 7.421875 0 L 79.9375 -133.234375 L 118.78125 -133.234375 L 191.296875 0 L 157.984375 0 L 141.8125 -29.5 L 56.90625 -29.5 L 40.734375 0 Z M 68.53125 -52.71875 L 130.1875 -52.71875 L 99.359375 -108.6875 Z M 68.53125 -52.71875 "/></g></g></g><g fill="#000000" fill-opacity="1"><g transform="translate(740.67441, 172.349259)"><g><path d="M 9.328125 0 L 9.328125 -133.234375 L 51.015625 -133.234375 L 150.9375 -30.828125 L 150.9375 -133.234375 L 181.015625 -133.234375 L 181.015625 0 L 139.515625 0 L 39.40625 -102.40625 L 39.40625 0 Z M 9.328125 0 "/></g></g></g></g></g><g clip-path="url(#5b61577d30)"><g transform="matrix(1, 0, 0, 1, 1065, 45)"><g clip-path="url(#a86a18254d)"><g clip-path="url(#cf7e9e8296)"><g mask="url(#553832be2c)"><g transform="matrix(1, 0, 0, 1, -0.000000000000227374, -0.000000000000007105)"><g clip-path="url(#0f511b5bb8)"><g clip-path="url(#6c1a64a4d2)"><path fill="url(#3dcb7efd07)" d="M 268.234375 42.789062 L 6 42.789062 L 6 372.449219 L 268.234375 372.449219 Z M 268.234375 42.789062 " fill-rule="nonzero"/></g></g></g></g></g></g></g></g><g clip-path="url(#feddbce4ce)"><g transform="matrix(1, 0, 0, 1, 872, 149)"><g clip-path="url(#b8262162ad)"><g clip-path="url(#29af64bf3c)"><path fill="#ffffff" d="M 3.917969 0.234375 L 3.917969 284.257812 L 0.171875 284.257812 L 0.171875 0.234375 Z M 3.917969 0.234375 " fill-opacity="1" fill-rule="nonzero"/></g></g></g></g><g clip-path="url(#804f95ad31)"><g transform="matrix(1, 0, 0, 1, 1147, 93)"><g clip-path="url(#432cb292b6)"><g clip-path="url(#0901265904)"><path fill="#ffffff" d="M 3.96875 0.25 L 3.96875 284.269531 L 0.222656 284.269531 L 0.222656 0.25 Z M 3.96875 0.25 " fill-opacity="1" fill-rule="nonzero"/></g></g></g></g><g clip-path="url(#d954422629)"><g clip-path="url(#672e4fd11e)"><g transform="matrix(1, 0, 0, 1, 510, 244)"><g clip-path="url(#e2fd337a0d)"><g clip-path="url(#aaf43043ab)"><g clip-path="url(#b72f6f2ee4)"><path fill="#ffffff" d="M 3.847656 0.644531 L 151.539062 243.25 L 148.1875 245.289062 L 0.5 2.6875 Z M 3.847656 0.644531 " fill-opacity="1" fill-rule="nonzero"/></g></g></g></g></g></g><g clip-path="url(#0d7fb9b066)"><g transform="matrix(1, 0, 0, 1, 628, 82)"><g clip-path="url(#5bdf5d1051)"><g clip-path="url(#9e4ceee24a)"><path fill="#ffffff" d="M 5.605469 0.941406 L 5.605469 284.960938 L 0.28125 284.960938 L 0.28125 0.941406 Z M 5.605469 0.941406 " fill-opacity="1" fill-rule="nonzero"/></g></g></g></g><g clip-path="url(#313d4fbb80)"><g transform="matrix(1, 0, 0, 1, 324, 97)"><g clip-path="url(#15520b4426)"><g clip-path="url(#c08daca477)"><path fill="#ffffff" d="M 4.039062 0.324219 L 4.039062 284.347656 L 0.292969 284.347656 L 0.292969 0.324219 Z M 4.039062 0.324219 " fill-opacity="1" fill-rule="nonzero"/></g></g></g></g><g clip-path="url(#457eb9e251)"><g clip-path="url(#29d45f08a8)"><g transform="matrix(1, 0, 0, 1, 896, 185)"><g clip-path="url(#a1b9fc0940)"><g clip-path="url(#a81497615c)"><g clip-path="url(#e4c89cd8c7)"><path fill="#000000" d="M 4.011719 0.84375 L 75.5 132.070312 L 71.652344 134.164062 L 0.164062 2.9375 Z M 4.011719 0.84375 " fill-opacity="1" fill-rule="nonzero"/></g></g></g></g></g></g><g clip-path="url(#7162434135)"><g clip-path="url(#82630151ca)"><g transform="matrix(1, 0, 0, 1, 776, 185)"><g clip-path="url(#3280bf0686)"><g clip-path="url(#b14c3ef02c)"><g clip-path="url(#d472ef8f1d)"><path fill="#000000" d="M 75.503906 1.863281 L 4.089844 134.914062 L 0.789062 133.144531 L 72.203125 0.09375 Z M 75.503906 1.863281 " fill-opacity="1" fill-rule="nonzero"/></g></g></g></g></g></g><g clip-path="url(#00142fdc23)"><g clip-path="url(#801c89ebd9)"><g transform="matrix(1, 0, 0, 1, 359, 0)"><g clip-path="url(#bb6cb6ec22)"><g clip-path="url(#054151936b)"><g clip-path="url(#fc85a1be49)"><path fill="#ffffff" d="M 3.8125 0.00390625 L 151.5 242.609375 L 148.148438 244.648438 L 0.460938 2.042969 Z M 3.8125 0.00390625 " fill-opacity="1" fill-rule="nonzero"/></g></g></g></g></g></g></svg>